<svg width="954" height="953" viewBox="0 0 954 953" fill="none" xmlns="http://www.w3.org/2000/svg">
<path d="M288.223 198.141C288.223 178.292 304.314 162.201 324.164 162.201H503.864C523.713 162.201 539.804 178.292 539.804 198.141V629.422C539.804 649.271 555.895 665.362 575.744 665.362H629.654C649.503 665.362 665.594 649.271 665.594 629.422V198.141C665.594 178.292 681.685 162.201 701.534 162.201H755.444C775.293 162.201 791.384 178.292 791.384 198.141V647.392C791.384 667.241 775.293 683.332 755.444 683.332H701.534C681.685 683.332 665.594 699.423 665.594 719.272V755.212C665.594 775.061 649.503 791.152 629.654 791.152H449.954C430.105 791.152 414.014 775.061 414.014 755.212V323.931C414.014 304.082 397.923 287.991 378.074 287.991H324.164C304.314 287.991 288.223 304.082 288.223 323.931V755.212C288.223 775.061 272.133 791.152 252.283 791.152H198.373C178.524 791.152 162.433 775.061 162.433 755.212V308.208C162.433 288.359 178.524 272.268 198.373 272.268H252.283C272.133 272.268 288.223 256.177 288.223 236.328V198.141Z" fill="black"/>
<path fill-rule="evenodd" clip-rule="evenodd" d="M198.373 0.4711H755.444C864.614 0.4711 953.114 88.9711 953.114 198.141V755.212C953.114 864.382 864.614 952.882 755.444 952.882H198.373C89.2031 952.882 0.703125 864.382 0.703125 755.212V198.141C0.703125 88.9711 89.2031 0.4711 198.373 0.4711ZM198.373 90.3212C138.826 90.3212 90.5532 138.594 90.5532 198.141V755.212C90.5532 814.759 138.826 863.032 198.373 863.032H755.444C814.992 863.032 863.264 814.759 863.264 755.212V198.141C863.264 138.594 814.992 90.3212 755.444 90.3212H198.373Z" fill="black"/>
</svg>
