<svg width="953" height="953" viewBox="0 0 953 953" fill="none" xmlns="http://www.w3.org/2000/svg">
<path d="M287.899 198.141C287.899 178.292 303.99 162.201 323.839 162.201H503.54C523.389 162.201 539.48 178.292 539.48 198.141V629.422C539.48 649.271 555.57 665.362 575.42 665.362H629.33C649.179 665.362 665.27 649.271 665.27 629.422V198.141C665.27 178.292 681.361 162.201 701.21 162.201H755.12C774.969 162.201 791.06 178.292 791.06 198.141V647.392C791.06 667.241 774.969 683.332 755.12 683.332H701.21C681.361 683.332 665.27 699.423 665.27 719.272V755.212C665.27 775.061 649.179 791.152 629.33 791.152H449.629C429.78 791.152 413.689 775.061 413.689 755.212V323.931C413.689 304.082 397.599 287.991 377.749 287.991H323.839C303.99 287.991 287.899 304.082 287.899 323.931V755.212C287.899 775.061 271.808 791.152 251.959 791.152H198.049C178.2 791.152 162.109 775.061 162.109 755.212V308.208C162.109 288.359 178.2 272.268 198.049 272.268H251.959C271.808 272.268 287.899 256.177 287.899 236.328V198.141Z" fill="white"/>
<path fill-rule="evenodd" clip-rule="evenodd" d="M198.049 0.4711H755.12C864.29 0.4711 952.79 88.9711 952.79 198.141V755.212C952.79 864.382 864.29 952.882 755.12 952.882H198.049C88.8789 952.882 0.378906 864.382 0.378906 755.212V198.141C0.378906 88.9711 88.8789 0.4711 198.049 0.4711ZM198.049 90.3212C138.502 90.3212 90.229 138.594 90.229 198.141V755.212C90.229 814.759 138.502 863.032 198.049 863.032H755.12C814.667 863.032 862.94 814.759 862.94 755.212V198.141C862.94 138.594 814.667 90.3212 755.12 90.3212H198.049Z" fill="white"/>
</svg>
