<svg width="3217" height="953" viewBox="0 0 3217 953" fill="none" xmlns="http://www.w3.org/2000/svg">
<path d="M287.68 198.259C287.68 178.41 303.771 162.319 323.621 162.319H503.321C523.17 162.319 539.261 178.41 539.261 198.259V629.54C539.261 649.389 555.352 665.48 575.201 665.48H629.111C648.96 665.48 665.051 649.389 665.051 629.54V198.259C665.051 178.41 681.142 162.319 700.991 162.319H754.901C774.75 162.319 790.841 178.41 790.841 198.259V647.51C790.841 667.359 774.75 683.45 754.901 683.45H700.991C681.142 683.45 665.051 699.541 665.051 719.39V755.33C665.051 775.179 648.96 791.27 629.111 791.27H449.411C429.562 791.27 413.471 775.179 413.471 755.33V324.049C413.471 304.2 397.38 288.109 377.531 288.109H323.621C303.771 288.109 287.68 304.2 287.68 324.049V755.33C287.68 775.179 271.59 791.27 251.74 791.27H197.83C177.981 791.27 161.89 775.179 161.89 755.33V308.326C161.89 288.476 177.981 272.385 197.83 272.385H251.74C271.59 272.385 287.68 256.295 287.68 236.445V198.259Z" fill="black"/>
<path d="M1042.42 198.259C1042.42 178.41 1058.51 162.319 1078.36 162.319H1509.64C1529.49 162.319 1545.58 178.41 1545.58 198.259V252.169C1545.58 272.018 1529.49 288.109 1509.64 288.109H1078.36C1058.51 288.109 1042.42 304.2 1042.42 324.049V377.959C1042.42 397.808 1058.51 413.899 1078.36 413.899H1509.64C1529.49 413.899 1545.58 429.99 1545.58 449.839V503.749C1545.58 523.599 1529.49 539.69 1509.64 539.69H1078.36C1058.51 539.69 1042.42 555.78 1042.42 575.63V629.54C1042.42 649.389 1058.51 665.48 1078.36 665.48H1509.64C1529.49 665.48 1545.58 681.571 1545.58 701.42V755.33C1545.58 775.179 1529.49 791.27 1509.64 791.27H1078.36C1058.51 791.27 1042.42 775.179 1042.42 755.33V719.39C1042.42 699.541 1026.33 683.45 1006.48 683.45H952.571C932.722 683.45 916.631 667.359 916.631 647.51V306.079C916.631 286.23 932.722 270.139 952.571 270.139H1006.48C1026.33 270.139 1042.42 254.048 1042.42 234.199V198.259Z" fill="black"/>
<path fill-rule="evenodd" clip-rule="evenodd" d="M1833.1 162.319C1813.25 162.319 1797.16 178.41 1797.16 198.259V234.199C1797.16 254.048 1781.07 270.139 1761.22 270.139H1707.31C1687.46 270.139 1671.37 286.23 1671.37 306.079V755.33C1671.37 775.179 1687.46 791.27 1707.31 791.27H1761.22C1781.07 791.27 1797.16 775.179 1797.16 755.33V710.405C1797.16 690.556 1813.25 674.465 1833.1 674.465H1887.01C1906.86 674.465 1922.95 690.556 1922.95 710.405V755.33C1922.95 775.179 1939.04 791.27 1958.89 791.27H2264.38C2284.23 791.27 2300.32 775.179 2300.32 755.33V701.42C2300.32 681.571 2284.23 665.48 2264.38 665.48H1967.88C1948.03 665.48 1931.94 649.389 1931.94 629.54V575.63C1931.94 555.78 1948.03 539.69 1967.88 539.69H2138.59C2158.44 539.69 2174.53 523.599 2174.53 503.749V454.332C2174.53 434.483 2190.62 418.392 2210.47 418.392H2264.38C2284.23 418.392 2300.32 402.301 2300.32 382.452V306.079C2300.32 286.23 2284.23 270.139 2264.38 270.139H2210.47C2190.62 270.139 2174.53 254.048 2174.53 234.199V198.259C2174.53 178.41 2158.44 162.319 2138.59 162.319H1833.1ZM1797.16 494.764C1797.16 514.614 1813.25 530.705 1833.1 530.705H1887.01C1906.86 530.705 1922.95 514.614 1922.95 494.764V449.839C1922.95 429.99 1939.04 413.899 1958.89 413.899H2138.59C2158.44 413.899 2174.53 397.808 2174.53 377.959V324.049C2174.53 304.2 2158.44 288.109 2138.59 288.109H1833.1C1813.25 288.109 1797.16 304.2 1797.16 324.049V494.764Z" fill="black"/>
<path fill-rule="evenodd" clip-rule="evenodd" d="M2587.84 162.319C2567.99 162.319 2551.9 178.41 2551.9 198.259V234.199C2551.9 254.048 2535.81 270.139 2515.96 270.139H2462.05C2442.2 270.139 2426.11 286.23 2426.11 306.079V647.51C2426.11 667.359 2442.2 683.45 2462.05 683.45H2515.96C2535.81 683.45 2551.9 699.541 2551.9 719.39V755.33C2551.9 775.179 2567.99 791.27 2587.84 791.27H2893.33C2913.18 791.27 2929.27 775.179 2929.27 755.33V719.39C2929.27 699.541 2945.36 683.45 2965.21 683.45H3019.12C3038.97 683.45 3055.06 667.359 3055.06 647.51V306.079C3055.06 286.23 3038.97 270.139 3019.12 270.139H2965.21C2945.36 270.139 2929.27 254.048 2929.27 234.199V198.259C2929.27 178.41 2913.18 162.319 2893.33 162.319H2587.84ZM2929.27 324.049C2929.27 304.2 2913.18 288.109 2893.33 288.109H2587.84C2567.99 288.109 2551.9 304.2 2551.9 324.049V629.54C2551.9 649.389 2567.99 665.48 2587.84 665.48H2893.33C2913.18 665.48 2929.27 649.389 2929.27 629.54V324.049Z" fill="black"/>
<path fill-rule="evenodd" clip-rule="evenodd" d="M197.83 0.588867H3019.12C3128.29 0.588867 3216.79 89.0888 3216.79 198.259V755.33C3216.79 864.5 3128.29 953 3019.12 953H197.83C88.6602 953 0.160156 864.5 0.160156 755.33V198.259C0.160156 89.0889 88.6601 0.588867 197.83 0.588867ZM197.83 90.439C138.283 90.439 90.0103 138.712 90.0103 198.259V755.33C90.0103 814.877 138.283 863.15 197.83 863.15H3019.12C3078.67 863.15 3126.94 814.877 3126.94 755.33V198.259C3126.94 138.712 3078.67 90.439 3019.12 90.439H197.83Z" fill="black"/>
</svg>
