<svg width="4902" height="1349" viewBox="0 0 4902 1349" fill="none" xmlns="http://www.w3.org/2000/svg">
<path d="M333.122 398.152C333.122 378.303 349.213 362.212 369.062 362.212H548.762C568.612 362.212 584.702 378.303 584.702 398.152V829.433C584.702 849.282 600.793 865.373 620.642 865.373H674.553C694.402 865.373 710.493 849.282 710.493 829.433V398.152C710.493 378.303 726.583 362.212 746.433 362.212H800.343C820.192 362.212 836.283 378.303 836.283 398.152V847.403C836.283 867.252 820.192 883.343 800.343 883.343H746.433C726.583 883.343 710.493 899.434 710.493 919.283V955.223C710.493 975.072 694.402 991.163 674.553 991.163H494.852C475.003 991.163 458.912 975.072 458.912 955.223V523.942C458.912 504.093 442.821 488.002 422.972 488.002H369.062C349.213 488.002 333.122 504.093 333.122 523.942V955.223C333.122 975.072 317.031 991.163 297.182 991.163H243.272C223.423 991.163 207.332 975.072 207.332 955.223V508.219C207.332 488.369 223.423 472.278 243.272 472.278H297.182C317.031 472.278 333.122 456.188 333.122 436.338V398.152Z" fill="#FCF7F8"/>
<path d="M1087.86 395.906C1087.86 376.057 1103.95 359.966 1123.8 359.966H1555.08C1574.93 359.966 1591.02 376.057 1591.02 395.906V449.816C1591.02 469.665 1574.93 485.756 1555.08 485.756H1123.8C1103.95 485.756 1087.86 501.847 1087.86 521.696V575.606C1087.86 595.455 1103.95 611.546 1123.8 611.546H1555.08C1574.93 611.546 1591.02 627.637 1591.02 647.486V701.396C1591.02 721.245 1574.93 737.336 1555.08 737.336H1123.8C1103.95 737.336 1087.86 753.427 1087.86 773.276V827.186C1087.86 847.036 1103.95 863.126 1123.8 863.126H1555.08C1574.93 863.126 1591.02 879.217 1591.02 899.066V952.977C1591.02 972.826 1574.93 988.917 1555.08 988.917H1123.8C1103.95 988.917 1087.86 972.826 1087.86 952.977V917.036C1087.86 897.187 1071.77 881.096 1051.92 881.096H998.013C978.164 881.096 962.073 865.006 962.073 845.156V503.726C962.073 483.877 978.164 467.786 998.013 467.786H1051.92C1071.77 467.786 1087.86 451.695 1087.86 431.846V395.906Z" fill="#FCF7F8"/>
<path fill-rule="evenodd" clip-rule="evenodd" d="M1878.54 359.966C1858.69 359.966 1842.6 376.057 1842.6 395.906V431.846C1842.6 451.695 1826.51 467.786 1806.66 467.786H1752.75C1732.9 467.786 1716.81 483.877 1716.81 503.726V952.977C1716.81 972.826 1732.9 988.917 1752.75 988.917H1806.66C1826.51 988.917 1842.6 972.826 1842.6 952.977V908.052C1842.6 888.202 1858.69 872.111 1878.54 872.111H1932.45C1952.3 872.111 1968.39 888.202 1968.39 908.052V952.977C1968.39 972.826 1984.48 988.917 2004.33 988.917H2309.82C2329.67 988.917 2345.76 972.826 2345.76 952.977V899.066C2345.76 879.217 2329.67 863.126 2309.82 863.126H2013.32C1993.47 863.126 1977.38 847.036 1977.38 827.186V773.276C1977.38 753.427 1993.47 737.336 2013.32 737.336H2184.03C2203.88 737.336 2219.97 721.245 2219.97 701.396V651.979C2219.97 632.13 2236.07 616.039 2255.91 616.039H2309.82C2329.67 616.039 2345.76 599.948 2345.76 580.099V503.726C2345.76 483.877 2329.67 467.786 2309.82 467.786H2255.91C2236.07 467.786 2219.97 451.695 2219.97 431.846V395.906C2219.97 376.057 2203.88 359.966 2184.03 359.966H1878.54ZM1842.6 692.411C1842.6 712.26 1858.69 728.351 1878.54 728.351H1932.45C1952.3 728.351 1968.39 712.26 1968.39 692.411V647.486C1968.39 627.637 1984.48 611.546 2004.33 611.546H2184.03C2203.88 611.546 2219.97 595.455 2219.97 575.606V521.696C2219.97 501.847 2203.88 485.756 2184.03 485.756H1878.54C1858.69 485.756 1842.6 501.847 1842.6 521.696V692.411Z" fill="#FCF7F8"/>
<path fill-rule="evenodd" clip-rule="evenodd" d="M2633.28 359.966C2613.44 359.966 2597.34 376.057 2597.34 395.906V431.846C2597.34 451.695 2581.25 467.786 2561.4 467.786H2507.49C2487.65 467.786 2471.55 483.877 2471.55 503.726V845.156C2471.55 865.006 2487.65 881.096 2507.49 881.096H2561.4C2581.25 881.096 2597.34 897.187 2597.34 917.036V952.977C2597.34 972.826 2613.44 988.917 2633.28 988.917H2938.78C2958.62 988.917 2974.72 972.826 2974.72 952.977V917.036C2974.72 897.187 2990.81 881.096 3010.66 881.096H3064.57C3084.41 881.096 3100.51 865.006 3100.51 845.156V503.726C3100.51 483.877 3084.41 467.786 3064.57 467.786H3010.66C2990.81 467.786 2974.72 451.695 2974.72 431.846V395.906C2974.72 376.057 2958.62 359.966 2938.78 359.966H2633.28ZM2974.72 521.696C2974.72 501.847 2958.62 485.756 2938.78 485.756H2633.28C2613.44 485.756 2597.34 501.847 2597.34 521.696V827.186C2597.34 847.036 2613.44 863.126 2633.28 863.126H2938.78C2958.62 863.126 2974.72 847.036 2974.72 827.186V521.696Z" fill="#FCF7F8"/>
<path d="M4399.72 810.563V533.825H4466.53L4573.67 802.657V533.825H4608.46V810.563H4539.27L4434.51 543.709V810.563H4399.72Z" fill="#848484"/>
<path d="M4197.12 810.563V777.75H4254.84V566.638H4197.12V533.825H4348.14V566.638H4290.42V777.75H4348.14V810.563H4197.12Z" fill="#848484"/>
<path d="M4134.95 810.563L4113.6 739.007H3997.37L3976.02 810.563H3937.68L4023.86 533.825H4087.91L4173.3 810.563H4134.95ZM4006.86 707.38H4104.12L4055.49 543.709L4006.86 707.38Z" fill="#848484"/>
<path d="M3866.58 810.563V685.24H3734.14V810.563H3698.56V533.825H3734.14V651.637H3866.58V533.825H3902.16V810.563H3866.58Z" fill="#848484"/>
<path d="M3543.6 814.121C3474.02 814.121 3434.48 771.425 3434.48 695.915V648.474C3434.48 572.964 3474.02 530.267 3543.6 530.267C3609.62 530.267 3646.39 569.406 3651.13 629.893H3615.15C3610.8 591.545 3592.22 563.871 3543.6 563.871C3490.23 563.871 3470.06 596.684 3470.06 648.474V695.915C3470.06 747.704 3490.23 780.518 3543.6 780.518C3591.04 780.518 3610.8 754.425 3614.36 717.658H3650.34C3645.2 776.564 3608.83 814.121 3543.6 814.121Z" fill="#848484"/>
<path fill-rule="evenodd" clip-rule="evenodd" d="M3414.98 425.107H4627.96C4665.17 425.107 4695.34 455.278 4695.34 492.495V851.895C4695.34 889.112 4665.17 919.283 4627.96 919.283H3414.98C3377.76 919.283 3347.59 889.112 3347.59 851.895V492.495C3347.59 455.278 3377.76 425.107 3414.98 425.107ZM3414.98 456.555C3395.13 456.555 3379.04 472.646 3379.04 492.495V851.895C3379.04 871.744 3395.13 887.835 3414.98 887.835H4627.96C4647.81 887.835 4663.9 871.744 4663.9 851.895V492.495C4663.9 472.646 4647.81 456.555 4627.96 456.555H3414.98Z" fill="#848484"/>
</svg>
