<svg width="3217" height="953" viewBox="0 0 3217 953" fill="none" xmlns="http://www.w3.org/2000/svg">
<path d="M287.788 198.259C287.788 178.41 303.879 162.319 323.728 162.319H503.428C523.277 162.319 539.368 178.41 539.368 198.259V629.54C539.368 649.389 555.459 665.48 575.308 665.48H629.218C649.067 665.48 665.158 649.389 665.158 629.54V198.259C665.158 178.41 681.249 162.319 701.098 162.319H755.008C774.858 162.319 790.948 178.41 790.948 198.259V647.51C790.948 667.359 774.858 683.45 755.008 683.45H701.098C681.249 683.45 665.158 699.541 665.158 719.39V755.33C665.158 775.179 649.067 791.27 629.218 791.27H449.518C429.669 791.27 413.578 775.179 413.578 755.33V324.049C413.578 304.2 397.487 288.109 377.638 288.109H323.728C303.879 288.109 287.788 304.2 287.788 324.049V755.33C287.788 775.179 271.697 791.27 251.848 791.27H197.938C178.089 791.27 161.998 775.179 161.998 755.33V308.326C161.998 288.476 178.089 272.385 197.938 272.385H251.848C271.697 272.385 287.788 256.295 287.788 236.445V198.259Z" fill="white"/>
<path d="M1042.53 198.259C1042.53 178.41 1058.62 162.319 1078.47 162.319H1509.75C1529.6 162.319 1545.69 178.41 1545.69 198.259V252.169C1545.69 272.018 1529.6 288.109 1509.75 288.109H1078.47C1058.62 288.109 1042.53 304.2 1042.53 324.049V377.959C1042.53 397.808 1058.62 413.899 1078.47 413.899H1509.75C1529.6 413.899 1545.69 429.99 1545.69 449.839V503.749C1545.69 523.599 1529.6 539.69 1509.75 539.69H1078.47C1058.62 539.69 1042.53 555.78 1042.53 575.63V629.54C1042.53 649.389 1058.62 665.48 1078.47 665.48H1509.75C1529.6 665.48 1545.69 681.571 1545.69 701.42V755.33C1545.69 775.179 1529.6 791.27 1509.75 791.27H1078.47C1058.62 791.27 1042.53 775.179 1042.53 755.33V719.39C1042.53 699.541 1026.44 683.45 1006.59 683.45H952.679C932.83 683.45 916.739 667.359 916.739 647.51V306.079C916.739 286.23 932.83 270.139 952.679 270.139H1006.59C1026.44 270.139 1042.53 254.048 1042.53 234.199V198.259Z" fill="white"/>
<path fill-rule="evenodd" clip-rule="evenodd" d="M1833.21 162.319C1813.36 162.319 1797.27 178.41 1797.27 198.259V234.199C1797.27 254.048 1781.18 270.139 1761.33 270.139H1707.42C1687.57 270.139 1671.48 286.23 1671.48 306.079V755.33C1671.48 775.179 1687.57 791.27 1707.42 791.27H1761.33C1781.18 791.27 1797.27 775.179 1797.27 755.33V710.405C1797.27 690.556 1813.36 674.465 1833.21 674.465H1887.12C1906.97 674.465 1923.06 690.556 1923.06 710.405V755.33C1923.06 775.179 1939.15 791.27 1959 791.27H2264.49C2284.34 791.27 2300.43 775.179 2300.43 755.33V701.42C2300.43 681.571 2284.34 665.48 2264.49 665.48H1967.98C1948.14 665.48 1932.04 649.389 1932.04 629.54V575.63C1932.04 555.78 1948.14 539.69 1967.98 539.69H2138.7C2158.55 539.69 2174.64 523.599 2174.64 503.749V454.332C2174.64 434.483 2190.73 418.392 2210.58 418.392H2264.49C2284.34 418.392 2300.43 402.301 2300.43 382.452V306.079C2300.43 286.23 2284.34 270.139 2264.49 270.139H2210.58C2190.73 270.139 2174.64 254.048 2174.64 234.199V198.259C2174.64 178.41 2158.55 162.319 2138.7 162.319H1833.21ZM1797.27 494.764C1797.27 514.614 1813.36 530.705 1833.21 530.705H1887.12C1906.97 530.705 1923.06 514.614 1923.06 494.764V449.839C1923.06 429.99 1939.15 413.899 1959 413.899H2138.7C2158.55 413.899 2174.64 397.808 2174.64 377.959V324.049C2174.64 304.2 2158.55 288.109 2138.7 288.109H1833.21C1813.36 288.109 1797.27 304.2 1797.27 324.049V494.764Z" fill="white"/>
<path fill-rule="evenodd" clip-rule="evenodd" d="M2587.95 162.319C2568.1 162.319 2552.01 178.41 2552.01 198.259V234.199C2552.01 254.048 2535.92 270.139 2516.07 270.139H2462.16C2442.31 270.139 2426.22 286.23 2426.22 306.079V647.51C2426.22 667.359 2442.31 683.45 2462.16 683.45H2516.07C2535.92 683.45 2552.01 699.541 2552.01 719.39V755.33C2552.01 775.179 2568.1 791.27 2587.95 791.27H2893.44C2913.29 791.27 2929.38 775.179 2929.38 755.33V719.39C2929.38 699.541 2945.47 683.45 2965.32 683.45H3019.23C3039.08 683.45 3055.17 667.359 3055.17 647.51V306.079C3055.17 286.23 3039.08 270.139 3019.23 270.139H2965.32C2945.47 270.139 2929.38 254.048 2929.38 234.199V198.259C2929.38 178.41 2913.29 162.319 2893.44 162.319H2587.95ZM2929.38 324.049C2929.38 304.2 2913.29 288.109 2893.44 288.109H2587.95C2568.1 288.109 2552.01 304.2 2552.01 324.049V629.54C2552.01 649.389 2568.1 665.48 2587.95 665.48H2893.44C2913.29 665.48 2929.38 649.389 2929.38 629.54V324.049Z" fill="white"/>
<path fill-rule="evenodd" clip-rule="evenodd" d="M197.938 0.588867H3019.23C3128.4 0.588867 3216.9 89.0888 3216.9 198.259V755.33C3216.9 864.5 3128.4 953 3019.23 953H197.938C88.7676 953 0.267578 864.5 0.267578 755.33V198.259C0.267578 89.0889 88.7675 0.588867 197.938 0.588867ZM197.938 90.439C138.39 90.439 90.1177 138.712 90.1177 198.259V755.33C90.1177 814.877 138.39 863.15 197.938 863.15H3019.23C3078.78 863.15 3127.05 814.877 3127.05 755.33V198.259C3127.05 138.712 3078.78 90.439 3019.23 90.439H197.938Z" fill="white"/>
</svg>
