<svg width="4902" height="1349" viewBox="0 0 4902 1349" fill="none" xmlns="http://www.w3.org/2000/svg">
<path d="M332.446 398.152C332.446 378.303 348.537 362.212 368.386 362.212H548.087C567.936 362.212 584.027 378.303 584.027 398.152V829.433C584.027 849.282 600.118 865.373 619.967 865.373H673.877C693.726 865.373 709.817 849.282 709.817 829.433V398.152C709.817 378.303 725.908 362.212 745.757 362.212H799.667C819.516 362.212 835.607 378.303 835.607 398.152V847.403C835.607 867.252 819.516 883.343 799.667 883.343H745.757C725.908 883.343 709.817 899.434 709.817 919.283V955.223C709.817 975.072 693.726 991.163 673.877 991.163H494.177C474.327 991.163 458.237 975.072 458.237 955.223V523.942C458.237 504.093 442.146 488.002 422.296 488.002H368.386C348.537 488.002 332.446 504.093 332.446 523.942V955.223C332.446 975.072 316.355 991.163 296.506 991.163H242.596C222.747 991.163 206.656 975.072 206.656 955.223V508.219C206.656 488.369 222.747 472.278 242.596 472.278H296.506C316.355 472.278 332.446 456.188 332.446 436.338V398.152Z" fill="black"/>
<path d="M1087.19 395.906C1087.19 376.057 1103.28 359.966 1123.13 359.966H1554.41C1574.26 359.966 1590.35 376.057 1590.35 395.906V449.816C1590.35 469.665 1574.26 485.756 1554.41 485.756H1123.13C1103.28 485.756 1087.19 501.847 1087.19 521.696V575.606C1087.19 595.455 1103.28 611.546 1123.13 611.546H1554.41C1574.26 611.546 1590.35 627.637 1590.35 647.486V701.396C1590.35 721.245 1574.26 737.336 1554.41 737.336H1123.13C1103.28 737.336 1087.19 753.427 1087.19 773.276V827.186C1087.19 847.036 1103.28 863.126 1123.13 863.126H1554.41C1574.26 863.126 1590.35 879.217 1590.35 899.066V952.977C1590.35 972.826 1574.26 988.917 1554.41 988.917H1123.13C1103.28 988.917 1087.19 972.826 1087.19 952.977V917.036C1087.19 897.187 1071.1 881.096 1051.25 881.096H997.337C977.488 881.096 961.397 865.006 961.397 845.156V503.726C961.397 483.877 977.488 467.786 997.337 467.786H1051.25C1071.1 467.786 1087.19 451.695 1087.19 431.846V395.906Z" fill="black"/>
<path fill-rule="evenodd" clip-rule="evenodd" d="M1877.87 359.966C1858.02 359.966 1841.93 376.057 1841.93 395.906V431.846C1841.93 451.695 1825.84 467.786 1805.99 467.786H1752.08C1732.23 467.786 1716.14 483.877 1716.14 503.726V952.977C1716.14 972.826 1732.23 988.917 1752.08 988.917H1805.99C1825.84 988.917 1841.93 972.826 1841.93 952.977V908.052C1841.93 888.202 1858.02 872.111 1877.87 872.111H1931.78C1951.63 872.111 1967.72 888.202 1967.72 908.052V952.977C1967.72 972.826 1983.81 988.917 2003.66 988.917H2309.15C2329 988.917 2345.09 972.826 2345.09 952.977V899.066C2345.09 879.217 2329 863.126 2309.15 863.126H2012.64C1992.79 863.126 1976.7 847.036 1976.7 827.186V773.276C1976.7 753.427 1992.79 737.336 2012.64 737.336H2183.36C2203.21 737.336 2219.3 721.245 2219.3 701.396V651.979C2219.3 632.13 2235.39 616.039 2255.24 616.039H2309.15C2329 616.039 2345.09 599.948 2345.09 580.099V503.726C2345.09 483.877 2329 467.786 2309.15 467.786H2255.24C2235.39 467.786 2219.3 451.695 2219.3 431.846V395.906C2219.3 376.057 2203.21 359.966 2183.36 359.966H1877.87ZM1841.93 692.411C1841.93 712.26 1858.02 728.351 1877.87 728.351H1931.78C1951.63 728.351 1967.72 712.26 1967.72 692.411V647.486C1967.72 627.637 1983.81 611.546 2003.66 611.546H2183.36C2203.21 611.546 2219.3 595.455 2219.3 575.606V521.696C2219.3 501.847 2203.21 485.756 2183.36 485.756H1877.87C1858.02 485.756 1841.93 501.847 1841.93 521.696V692.411Z" fill="black"/>
<path fill-rule="evenodd" clip-rule="evenodd" d="M2632.61 359.966C2612.76 359.966 2596.67 376.057 2596.67 395.906V431.846C2596.67 451.695 2580.58 467.786 2560.73 467.786H2506.82C2486.97 467.786 2470.88 483.877 2470.88 503.726V845.156C2470.88 865.006 2486.97 881.096 2506.82 881.096H2560.73C2580.58 881.096 2596.67 897.187 2596.67 917.036V952.977C2596.67 972.826 2612.76 988.917 2632.61 988.917H2938.1C2957.95 988.917 2974.04 972.826 2974.04 952.977V917.036C2974.04 897.187 2990.13 881.096 3009.98 881.096H3063.89C3083.74 881.096 3099.83 865.006 3099.83 845.156V503.726C3099.83 483.877 3083.74 467.786 3063.89 467.786H3009.98C2990.13 467.786 2974.04 451.695 2974.04 431.846V395.906C2974.04 376.057 2957.95 359.966 2938.1 359.966H2632.61ZM2974.04 521.696C2974.04 501.847 2957.95 485.756 2938.1 485.756H2632.61C2612.76 485.756 2596.67 501.847 2596.67 521.696V827.186C2596.67 847.036 2612.76 863.126 2632.61 863.126H2938.1C2957.95 863.126 2974.04 847.036 2974.04 827.186V521.696Z" fill="black"/>
<path d="M4399.04 810.563V533.825H4465.85L4572.99 802.657V533.825H4607.78V810.563H4538.6L4433.83 543.709V810.563H4399.04Z" fill="#848484"/>
<path d="M4196.44 810.563V777.75H4254.16V566.638H4196.44V533.825H4347.46V566.638H4289.74V777.75H4347.46V810.563H4196.44Z" fill="#848484"/>
<path d="M4134.28 810.563L4112.93 739.007H3996.7L3975.35 810.563H3937L4023.19 533.825H4087.23L4172.62 810.563H4134.28ZM4006.19 707.38H4103.44L4054.81 543.709L4006.19 707.38Z" fill="#848484"/>
<path d="M3865.9 810.563V685.24H3733.46V810.563H3697.88V533.825H3733.46V651.637H3865.9V533.825H3901.48V810.563H3865.9Z" fill="#848484"/>
<path d="M3542.92 814.121C3473.34 814.121 3433.81 771.425 3433.81 695.915V648.474C3433.81 572.964 3473.34 530.267 3542.92 530.267C3608.94 530.267 3645.71 569.406 3650.45 629.893H3614.48C3610.13 591.545 3591.55 563.871 3542.92 563.871C3489.55 563.871 3469.39 596.684 3469.39 648.474V695.915C3469.39 747.704 3489.55 780.518 3542.92 780.518C3590.36 780.518 3610.13 754.425 3613.69 717.658H3649.66C3644.52 776.564 3608.15 814.121 3542.92 814.121Z" fill="#848484"/>
<path fill-rule="evenodd" clip-rule="evenodd" d="M3414.3 425.107H4627.28C4664.5 425.107 4694.67 455.278 4694.67 492.495V851.895C4694.67 889.112 4664.5 919.283 4627.28 919.283H3414.3C3377.09 919.283 3346.92 889.112 3346.92 851.895V492.495C3346.92 455.278 3377.09 425.107 3414.3 425.107ZM3414.3 456.555C3394.46 456.555 3378.36 472.646 3378.36 492.495V851.895C3378.36 871.744 3394.46 887.835 3414.3 887.835H4627.28C4647.13 887.835 4663.22 871.744 4663.22 851.895V492.495C4663.22 472.646 4647.13 456.555 4627.28 456.555H3414.3Z" fill="#848484"/>
</svg>
